# xmcd
#
# Track frame offsets:
#	150
#	15569
#	30756
#	33045
#	49953
#	61704
#	74205
#	89937
#	103899
#	106703
#	121262
#	135643
#	150494
#	164913
#	178877
#	192288
#	205258
#	221597
#	236357
#	247223
#	251269
#	265761
#	279322
#	291551
#	313600
#	317914
#	329597
#	343969
#
# Disc length: 4762 seconds
#
# Revision: 4
# Processed by: cddbd v1.5.2PL0 Copyright (c) Steve Scherf et al.
# Submitted via: EZCDAudioConverter 1.3.4.1
#
DISCID=ae12981c
DTITLE=V/A - Next Stop Is Vietnam 6/13
DYEAR=2010
DGENRE=
TTITLE0=The Doors - The Unknown Soldier
TTITLE1=Hugh X. Lewis - War Is Hell
TTITLE2=Morley Safer, CBS News, reports a death in the jungle (October 12, 
TTITLE2=1965)
TTITLE3=Southern Bells - Viet Nam
TTITLE4=SGT Gayle Parker - Waitin' For The V.C. To Come
TTITLE5=Hank Snow - A Letter From Viet Nam (To Mother)
TTITLE6=Tommy Finch - Street Without Joy (Part 1)
TTITLE7=Lindy Blaskey - Out Here In Viet-Nam
TTITLE8=A soldier writes home from ''Hamburger Hill'' (May 1969)
TTITLE9=Donovan - To Susan On The West Coast Waiting
TTITLE10=Colleen Lovett - Freckle-Faced Soldier
TTITLE11=Tony Scott - The Gentle Soldier
TTITLE12=Inez and Charlie Foxx - Fellows In Vietnam
TTITLE13=The Shelletts - My Soldier Boy Over There
TTITLE14=Ric King - The Return Of A Soldier
TTITLE15=Winola Edmond, Edmond Sisters and The Jordanians - My World Ended In So
TTITLE15=uth Viet Nam Sweetheart
TTITLE16=Zabka - And They Were Five
TTITLE17=Earle Epps - 4:00 A.M. In Viet Nam
TTITLE18=CAPT Gene Wyles - Follow Me
TTITLE19=John Laurence, CBS News, interviews a G.I. about ''Suicide Walk'' 
TTITLE19=(1970)
TTITLE20=Don Meehan - Sir, My Men Refuse To Go
TTITLE21=Paul Revere and The Raiders - Run Through The Jungle
TTITLE22=Glen Campbell - Galveston
TTITLE23=Jimmy Cliff - Viet Nam
TTITLE24=President Nixon sets out his ''Vietnamization'' policy (November 3
TTITLE24=, 1969)
TTITLE25=Lefty Pritchett - Vietnam Rotation Blues
TTITLE26=Paul Ott - The Soldier's Prayer
TTITLE27=Wilburn Brothers - The War Keeps Draggin' On
EXTD=
EXTT0=
EXTT1=
EXTT2=
EXTT3=
EXTT4=
EXTT5=
EXTT6=
EXTT7=
EXTT8=
EXTT9=
EXTT10=
EXTT11=
EXTT12=
EXTT13=
EXTT14=
EXTT15=
EXTT16=
EXTT17=
EXTT18=
EXTT19=
EXTT20=
EXTT21=
EXTT22=
EXTT23=
EXTT24=
EXTT25=
EXTT26=
EXTT27=
PLAYORDER=
